<svg width="17" height="21" viewBox="0 0 17 21" fill="none" xmlns="http://www.w3.org/2000/svg">
<path fill-rule="evenodd" clip-rule="evenodd" d="M8.52877 0.916691C10.6946 0.926274 12.7646 1.78877 14.2788 3.30294C15.8025 4.82669 16.6554 6.88711 16.6459 9.02419V9.07211C16.5884 11.9759 14.9592 14.6496 12.9275 16.7388C11.7775 17.9175 10.5029 18.9621 9.11335 19.8438C8.7396 20.16 8.19335 20.16 7.8196 19.8438C5.75919 18.5021 3.93835 16.8154 2.46252 14.8509C1.16877 13.145 0.430854 11.0942 0.354187 8.95711C0.373354 4.50086 4.03419 0.907108 8.52877 0.916691ZM8.52877 11.7075C9.20919 11.7075 9.86086 11.4488 10.34 10.9792C10.8384 10.4904 11.1172 9.83973 11.1172 9.15836C11.1172 7.74002 9.95669 6.59961 8.52877 6.59961C7.10086 6.59961 5.95086 7.74002 5.95086 9.15836C5.95086 10.5585 7.08169 11.6884 8.50002 11.7075H8.52877Z" fill="#200E32"/>
</svg>
