<svg width="23" height="24" viewBox="0 0 23 24" fill="none" xmlns="http://www.w3.org/2000/svg">
<path opacity="0.3" d="M11.5 12.6028C12.0954 12.6028 12.5781 12.1201 12.5781 11.5247C12.5781 10.9292 12.0954 10.4465 11.5 10.4465C10.9046 10.4465 10.4219 10.9292 10.4219 11.5247C10.4219 12.1201 10.9046 12.6028 11.5 12.6028Z" fill="#D5D7DC"/>
<path d="M11.5 2.18091C6.34791 2.18091 2.15625 6.37257 2.15625 11.5247C2.15625 16.6767 6.34791 20.8684 11.5 20.8684C16.6521 20.8684 20.8438 16.6767 20.8438 11.5247C20.8438 6.37257 16.6521 2.18091 11.5 2.18091ZM16.2199 7.2719L14.114 12.5367C13.9694 12.8983 13.7528 13.2268 13.4775 13.5021C13.2021 13.7775 12.8737 13.9941 12.5121 14.1387L7.24725 16.2446C7.18194 16.2707 7.11039 16.2771 7.04148 16.263C6.97257 16.2489 6.90932 16.2148 6.85958 16.1651C6.80984 16.1153 6.77579 16.0521 6.76165 15.9832C6.74752 15.9143 6.75392 15.8427 6.78006 15.7774L8.886 10.5126C9.0306 10.151 9.24715 9.82254 9.52252 9.54718C9.79788 9.27181 10.1263 9.05526 10.4879 8.91065L15.7528 6.80472C15.8181 6.77857 15.8896 6.77218 15.9585 6.78631C16.0274 6.80045 16.0907 6.8345 16.1404 6.88424C16.1902 6.93398 16.2242 6.99723 16.2383 7.06614C16.2525 7.13505 16.2461 7.2066 16.2199 7.2719Z" fill="#D5D7DC"/>
</svg>
