<svg width="17" height="21" viewBox="0 0 17 21" fill="none" xmlns="http://www.w3.org/2000/svg">
<path fill-rule="evenodd" clip-rule="evenodd" d="M13.535 6.09201C13.535 8.95027 11.2819 11.2674 8.50252 11.2674C5.72314 11.2674 3.47001 8.95027 3.47001 6.09201C3.47001 3.23375 5.72314 0.916672 8.50252 0.916672C11.2819 0.916672 13.535 3.23375 13.535 6.09201ZM12.822 14.1833C14.4221 14.5073 15.4668 15.0359 15.9145 15.8885C16.2507 16.5539 16.2507 17.3461 15.9145 18.0115C15.4668 18.8641 14.4636 19.4268 12.8054 19.7167C12.0666 19.8657 11.3186 19.9626 10.5669 20.0066C9.8705 20.0833 9.17407 20.0833 8.46935 20.0833H7.20086C6.93556 20.0492 6.67854 20.0322 6.42982 20.0322C5.67807 19.9935 4.92999 19.8995 4.19131 19.7508C2.59119 19.4439 1.54655 18.8982 1.09885 18.0456C0.926017 17.7153 0.834901 17.3464 0.833541 16.9713C0.829939 16.594 0.918299 16.2217 1.09056 15.8885C1.52997 15.0359 2.57461 14.4817 4.19131 14.1833C4.93324 14.0377 5.68388 13.9437 6.43811 13.9019C7.81779 13.7907 9.20382 13.7907 10.5835 13.9019C11.3348 13.9457 12.0826 14.0397 12.822 14.1833Z" fill="#2C3550"/>
</svg>
